<?xml version="1.0" standalone="no"?>
<!DOCTYPE svg PUBLIC "-//W3C//DTD SVG 20010904//EN"
 "http://www.w3.org/TR/2001/REC-SVG-20010904/DTD/svg10.dtd">
<svg version="1.0" xmlns="http://www.w3.org/2000/svg"
 width="1080.000000pt" height="1080.000000pt" viewBox="0 0 1080.000000 1080.000000"
 preserveAspectRatio="xMidYMid meet">
<metadata>
Created by potrace 1.14, written by Peter Selinger 2001-2017
</metadata>
<g transform="translate(0.000000,1080.000000) scale(0.100000,-0.100000)"
fill="#000000" stroke="none">
<path d="M4245 10514 c-11 -8 -19 -17 -17 -19 9 -18 0 -45 -16 -45 -25 0 -34
11 -22 25 7 8 5 12 -4 12 -17 0 -15 -19 4 -43 13 -15 13 -16 1 -9 -11 6 -13 4
-8 -8 3 -9 1 -19 -5 -23 -7 -4 -8 -3 -4 4 4 7 1 12 -8 12 -9 0 -18 0 -21 0 -3
0 -4 -3 -2 -7 1 -5 6 -7 10 -5 5 1 6 -2 2 -8 -3 -5 -1 -10 4 -10 6 0 11 -5 11
-10 0 -6 -11 -3 -24 5 -22 14 -24 15 -22 1 1 -9 6 -19 11 -23 4 -4 5 -2 0 6
-5 9 -4 12 3 7 23 -14 12 -28 -15 -21 l-27 6 25 -19 c17 -14 26 -17 31 -9 6 9
8 9 8 0 0 -6 -4 -14 -9 -18 -6 -3 -8 -14 -6 -25 2 -11 0 -22 -5 -25 -5 -3 -7
5 -5 17 4 23 4 23 -12 3 -10 -13 -14 -15 -10 -4 3 9 1 22 -4 30 -8 11 -9 9 -7
-6 2 -12 -2 -19 -9 -17 -18 3 -16 -13 2 -28 9 -8 15 -26 13 -46 -1 -22 4 -41
15 -52 17 -16 18 -16 12 3 -5 17 -4 17 11 -3 17 -23 27 -105 12 -96 -5 3 -8
12 -8 20 0 8 -4 12 -10 9 -5 -3 -10 0 -10 7 0 9 -3 9 -10 -2 -5 -8 -10 -10
-10 -4 0 6 -10 11 -22 11 -67 1 -79 3 -72 16 5 9 4 9 -6 0 -7 -6 -19 -9 -28
-6 -9 4 -13 2 -9 -4 5 -7 0 -9 -13 -6 -11 3 -18 8 -16 12 8 12 -121 18 -166 7
-16 -3 -43 -15 -60 -26 -18 -11 -42 -24 -53 -29 -34 -16 -85 -58 -78 -64 3 -4
-1 -7 -10 -7 -10 0 -14 -5 -11 -15 4 -8 1 -15 -6 -15 -7 0 -10 -6 -7 -14 3 -8
1 -30 -4 -48 -6 -18 -12 -44 -15 -58 -3 -13 -9 -27 -13 -30 -5 -3 -16 -19 -24
-37 -18 -34 -16 -87 5 -178 7 -27 12 -52 13 -55 2 -13 30 -56 44 -68 12 -11
13 -12 1 -6 -8 4 2 -9 23 -29 20 -20 37 -41 37 -47 0 -5 7 -10 15 -10 8 0 15
-5 15 -11 0 -5 4 -8 9 -5 5 3 12 -1 15 -10 4 -9 9 -14 13 -10 7 7 43 -22 43
-35 0 -8 20 -36 48 -64 6 -8 12 -17 12 -22 0 -4 19 -17 42 -28 24 -11 58 -41
80 -70 21 -27 47 -60 57 -72 28 -33 71 -110 66 -117 -3 -3 -2 -4 2 -1 3 3 12
-4 20 -15 15 -21 48 -27 58 -10 4 6 11 8 16 5 5 -4 9 -2 9 2 0 13 82 73 91 67
5 -3 27 -42 49 -87 41 -84 87 -144 129 -166 21 -12 25 -11 35 5 6 11 16 28 23
39 7 11 19 37 28 57 10 21 20 37 23 35 10 -2 92 54 92 64 0 17 49 9 55 -8 10
-29 75 -77 106 -79 16 -1 29 1 29 4 0 4 11 12 25 19 27 12 32 5 13 -16 -8 -8
-8 -11 -2 -8 7 4 12 -3 12 -18 0 -16 -5 -22 -12 -18 -6 4 -5 -1 3 -10 8 -10
11 -20 9 -23 -3 -3 -2 -21 2 -40 4 -18 4 -34 -1 -34 -4 0 -6 -6 -3 -14 10 -26
9 -156 -1 -160 -6 -3 -5 -5 1 -5 6 -1 9 -12 6 -26 -2 -14 -9 -22 -14 -19 -6 4
-3 -5 7 -19 11 -17 13 -27 5 -32 -8 -5 -7 -11 2 -23 10 -13 10 -14 0 -8 -9 6
-11 1 -8 -18 l5 -26 -32 21 -32 21 35 -33 c22 -20 28 -29 15 -24 -11 4 -29 7
-40 7 -10 -1 -25 4 -32 10 -7 6 -13 9 -14 7 -6 -26 -5 -57 2 -71 6 -11 5 -19
-3 -24 -6 -4 -8 -3 -4 4 8 13 -6 23 -20 14 -6 -4 -16 -16 -23 -27 l-11 -20 2
20 c2 11 12 28 23 38 19 17 19 17 -12 0 -17 -10 -29 -21 -27 -25 3 -5 -2 -8
-10 -8 -19 0 -21 11 -4 28 9 9 9 12 1 12 -7 0 -14 -9 -18 -20 -6 -17 -25 -21
-55 -10 -3 2 -9 2 -15 0 -5 -1 -15 7 -22 16 -7 10 -13 13 -13 8 0 -6 5 -15 11
-21 8 -8 7 -13 -2 -18 -7 -5 -10 -4 -7 1 3 5 -6 18 -20 28 -14 11 -22 13 -17
6 6 -9 4 -11 -4 -6 -7 5 -10 15 -6 24 3 9 3 13 -1 9 -4 -4 -13 -2 -21 5 -8 6
-13 7 -12 2 4 -22 -2 -35 -13 -28 -7 4 -4 -3 7 -17 16 -18 16 -21 2 -10 -9 8
-21 10 -25 6 -4 -4 -1 -10 6 -12 6 -3 12 -9 12 -13 0 -12 -38 -4 -58 12 -14
12 -14 10 -2 -12 12 -22 12 -24 -2 -12 -13 10 -17 10 -22 -4 -8 -22 -8 -26 4
-19 6 3 10 1 10 -4 0 -6 -9 -11 -20 -11 -12 0 -20 -7 -20 -16 0 -14 2 -15 18
-3 15 13 16 12 3 -3 -7 -10 -10 -18 -5 -18 5 0 1 -7 -9 -14 -16 -12 -16 -14
-2 -20 11 -4 14 -2 9 6 -5 7 -3 8 6 3 10 -6 9 -11 -5 -22 -16 -11 -16 -13 -3
-13 18 0 88 -66 80 -75 -3 -3 0 -5 6 -5 6 0 13 -8 16 -18 7 -20 35 -31 146
-59 41 -10 77 -21 78 -26 2 -4 8 -5 13 -1 5 3 9 0 9 -5 0 -6 7 -11 15 -11 8 0
15 -4 15 -10 0 -5 4 -10 9 -10 17 0 114 -64 154 -100 47 -42 70 -56 119 -70
21 -6 48 -21 61 -34 26 -26 66 -50 84 -51 7 0 12 -4 12 -9 0 -5 5 -13 13 -17
7 -5 8 -9 2 -9 -6 0 -11 -7 -11 -15 0 -8 5 -15 10 -15 5 0 4 -7 -3 -15 -9 -11
-10 -19 -1 -28 8 -10 7 -17 -1 -25 -7 -7 -8 -12 -3 -12 6 0 11 -93 11 -230 1
-127 -1 -230 -5 -228 -3 2 -30 12 -58 23 -29 11 -53 23 -53 28 0 5 -9 6 -19 2
-10 -3 -25 0 -32 7 -16 16 -20 16 -78 -1 -23 -7 -50 -10 -58 -7 -8 3 -12 2 -9
-3 6 -8 -77 -44 -101 -44 -7 0 -13 -4 -13 -9 0 -4 -9 -8 -20 -8 -11 0 -20 -4
-20 -10 0 -5 -3 -9 -7 -8 -14 3 -63 -14 -63 -22 0 -16 -55 -4 -63 14 -6 16 -9
16 -24 5 -15 -12 -16 -12 -11 3 7 18 -16 32 -35 21 -7 -4 -5 2 3 12 9 11 10
16 3 11 -7 -4 -13 -3 -13 2 0 12 -43 10 -52 -3 -5 -6 -8 -5 -8 2 0 7 -7 10
-17 6 -10 -3 -15 -3 -11 2 13 14 -16 30 -56 31 -21 1 -42 7 -46 14 -4 7 -19
13 -33 13 -21 0 -25 4 -23 25 2 14 12 29 22 33 10 4 13 8 6 8 -7 1 -17 12 -22
26 -9 23 -13 24 -32 15 -21 -11 -21 -10 2 12 14 12 20 19 13 14 -8 -5 -13 -4
-13 3 0 7 -4 9 -10 6 -5 -3 -10 -1 -10 5 0 6 6 10 13 9 24 -3 37 1 37 12 0 5
-4 8 -9 4 -5 -3 -13 -1 -16 5 -5 8 -12 7 -23 -2 -14 -12 -14 -10 -2 12 10 21
10 23 -1 13 -16 -16 -29 -17 -29 -2 0 5 5 7 10 4 6 -3 10 -1 10 4 0 6 -7 11
-15 11 -9 0 -25 9 -36 19 -20 18 -20 20 -2 30 17 11 17 11 -2 9 -15 -2 -19 2
-18 19 3 26 -21 37 -48 22 -15 -8 -18 -14 -9 -24 14 -17 9 -38 -11 -47 -9 -3
-23 -22 -33 -41 -11 -25 -22 -35 -34 -32 -12 2 -18 -4 -20 -18 0 -12 2 -17 6
-12 7 10 42 20 42 11 0 -2 -15 -13 -32 -25 -18 -11 -26 -21 -18 -21 13 0 13
-1 0 -11 -12 -8 -9 -9 10 -5 14 3 19 3 12 0 -10 -5 -10 -9 0 -22 10 -12 10
-14 1 -8 -8 4 -13 2 -13 -4 0 -6 -5 -8 -10 -5 -6 4 -8 11 -5 16 9 13 -7 10
-28 -6 -18 -13 -18 -14 3 -25 17 -9 21 -19 19 -45 -2 -19 1 -38 5 -42 5 -4 6
-3 2 4 -3 6 -3 14 2 17 23 14 4 -30 -27 -64 -45 -48 -63 -70 -57 -70 2 0 -8
-13 -22 -29 -41 -43 -54 -61 -45 -61 4 0 -2 -7 -13 -16 -10 -8 -13 -13 -6 -9
18 9 15 -4 -6 -23 -10 -10 -11 -12 -3 -7 11 7 13 7 7 -3 -4 -7 -24 -20 -44
-30 -36 -17 -42 -29 -43 -86 0 -10 7 -26 15 -35 8 -9 18 -32 21 -50 8 -47 19
-65 51 -81 40 -22 199 -184 228 -233 35 -59 98 -124 117 -120 15 4 59 -27 59
-41 0 -4 6 -14 13 -21 6 -8 34 -54 61 -104 28 -49 57 -92 66 -94 18 -5 112 77
102 88 -4 3 1 3 10 0 9 -4 19 -16 22 -28 7 -27 69 -94 95 -102 11 -3 36 1 56
10 50 20 54 19 68 -12 21 -46 51 -93 60 -93 5 0 5 -4 2 -10 -3 -5 -1 -10 5
-10 6 0 18 -7 27 -16 9 -9 22 -12 32 -8 9 4 23 7 32 8 10 0 15 6 11 15 -4 10
-1 13 12 8 9 -4 15 -3 11 2 -6 10 2 32 48 131 17 36 30 71 30 78 0 6 2 12 4
12 8 0 33 -28 33 -37 1 -12 58 -73 70 -73 5 0 10 -4 10 -10 0 -5 20 -10 43
-10 38 0 49 5 85 42 23 23 42 45 42 48 0 11 110 125 111 115 4 -31 3 -215 -1
-215 -3 0 -5 -39 -4 -88 0 -48 -4 -93 -9 -99 -5 -8 -6 -13 0 -13 5 0 9 -9 9
-19 0 -11 -5 -17 -10 -14 -5 4 -7 0 -4 -8 5 -13 -26 -15 -220 -14 -163 1 -227
5 -230 13 -2 7 -8 12 -13 12 -4 0 -6 -6 -4 -12 4 -10 -21 -13 -107 -11 -62 0
-115 2 -118 3 -3 1 -9 1 -15 0 -5 -1 -77 -2 -160 -1 -82 1 -387 3 -677 5 -289
2 -531 7 -537 10 -6 4 -11 2 -11 -4 0 -6 -5 -8 -12 -4 -7 5 -188 9 -401 9
l-389 1 -10 -25 c-5 -14 -11 -53 -14 -86 -2 -33 -6 -107 -9 -165 -10 -165 -13
-211 -20 -275 -14 -131 -15 -154 -19 -265 -3 -63 -1 -119 4 -125 5 -6 16 -33
25 -60 9 -28 21 -54 25 -59 5 -5 342 -9 769 -9 623 1 763 -2 772 -13 6 -7 8
-17 5 -22 -7 -12 9 -25 54 -42 19 -7 36 -14 38 -15 1 -1 -14 -34 -33 -74 -20
-40 -37 -85 -38 -102 -1 -16 -4 -29 -7 -29 -17 0 -16 -216 0 -276 18 -65 52
-132 88 -170 16 -18 29 -39 29 -47 0 -9 -49 -55 -109 -103 -60 -47 -114 -92
-121 -99 -26 -25 -56 -31 -207 -39 -119 -6 -152 -12 -204 -36 -54 -25 -205
-146 -218 -176 -6 -13 -14 -24 -18 -24 -17 0 -15 -428 3 -456 3 -6 3 -24 -2
-40 -9 -33 -7 -127 4 -143 3 -7 8 -37 10 -69 3 -31 7 -86 11 -122 4 -36 8 -87
9 -115 3 -56 11 -128 25 -225 5 -36 12 -85 16 -110 7 -56 29 -109 52 -126 41
-31 113 -56 170 -57 6 0 12 -3 12 -6 0 -3 37 -6 83 -7 86 -1 175 -9 183 -17 3
-2 6 -34 8 -70 2 -36 7 -70 11 -76 8 -14 82 -14 90 -1 11 17 25 11 25 -11 0
-20 21 -49 37 -49 10 0 43 -49 73 -107 12 -23 28 -47 36 -54 8 -6 14 -17 14
-24 0 -7 9 -24 21 -39 11 -14 18 -26 14 -26 -4 0 1 -7 9 -16 9 -8 16 -21 16
-28 0 -8 7 -19 15 -26 8 -7 12 -16 9 -21 -3 -5 0 -9 5 -9 6 0 11 -6 11 -14 0
-8 3 -16 8 -18 9 -4 51 -76 59 -100 3 -10 9 -18 14 -18 5 0 9 -5 9 -11 0 -6
10 -25 22 -42 13 -18 23 -34 24 -37 0 -4 13 -26 78 -133 37 -61 96 -177 90
-177 -4 0 -2 -6 4 -13 13 -16 16 -227 4 -227 -5 0 -13 -10 -17 -22 -10 -34
-11 -78 -2 -78 5 0 5 -5 2 -10 -3 -6 -1 -10 5 -10 6 0 9 -4 5 -10 -13 -21 64
-54 160 -68 63 -9 366 -9 422 0 59 10 97 20 108 28 6 4 21 10 35 13 26 7 65
63 50 72 -4 3 -6 14 -3 25 3 11 1 20 -5 20 -16 0 -24 39 -26 128 -1 75 1 87
26 127 16 25 28 49 28 54 0 5 3 11 8 13 4 2 21 29 37 60 17 32 33 58 38 58 4
0 7 6 7 13 1 23 60 107 72 102 8 -3 14 -26 15 -53 1 -26 7 -48 13 -50 5 -2 10
-10 10 -18 0 -41 126 -125 155 -104 6 4 23 10 38 14 18 4 33 17 41 36 8 20 49
55 132 111 65 45 146 102 179 128 33 25 65 49 70 53 6 4 24 19 40 34 17 14 50
42 75 63 57 46 340 328 402 401 26 30 64 75 85 99 57 65 192 240 222 286 14
22 31 44 38 48 7 4 13 13 13 18 0 6 13 29 29 52 81 119 149 281 158 375 2 26
5 64 7 86 2 21 8 41 14 45 29 19 34 229 8 351 -8 38 -50 140 -57 140 -3 0 0
24 8 52 19 73 27 195 26 383 0 109 -4 160 -12 163 -6 2 -11 12 -11 21 0 10 -8
25 -18 34 -10 9 -19 31 -20 49 -6 75 -32 154 -66 195 -34 43 -94 93 -137 117
-73 39 -221 89 -298 101 -105 17 -119 26 -226 151 -64 75 -88 94 -117 94 -16
0 -28 -5 -28 -12 0 -6 -3 -8 -7 -5 -3 4 -12 2 -20 -5 -10 -8 -20 -8 -38 2 -21
11 -29 11 -49 1 -13 -8 -29 -10 -35 -6 -7 4 -18 2 -24 -4 -24 -20 -85 -19
-106 1 -12 10 -23 18 -26 18 -11 -2 -65 25 -65 32 0 5 -9 8 -20 8 -24 0 -24 0
-6 36 8 15 13 31 10 36 -3 4 1 8 8 9 104 7 117 6 111 -5 -5 -8 -3 -8 8 0 21
16 155 12 151 -5 -1 -7 2 -10 8 -6 6 3 8 11 5 16 -9 14 19 11 34 -3 8 -7 11
-8 8 -3 -7 14 291 14 312 1 9 -6 12 -5 8 1 -8 12 632 11 652 -1 9 -6 12 -5 8
1 -5 7 25 11 88 10 61 0 95 -4 95 -11 0 -8 3 -8 8 0 5 8 148 11 492 10 l485
-1 25 26 c15 15 35 46 45 70 11 24 23 47 28 50 9 6 10 87 2 224 -5 84 -22 518
-24 601 -1 49 -19 64 -83 67 -36 2 -55 0 -51 -6 4 -6 1 -7 -8 -1 -8 5 -264 9
-569 10 -305 1 -557 3 -560 4 -3 1 -9 1 -15 0 -11 -3 -675 -2 -870 2 -72 1
-136 -1 -142 -5 -6 -4 -14 -4 -17 1 -3 5 -38 8 -78 7 -47 -2 -64 0 -48 5 14 4
21 9 15 10 -5 1 -20 3 -32 6 -14 2 -22 -1 -20 -8 1 -7 -15 -12 -46 -14 -47 -2
-68 8 -46 22 8 4 9 3 5 -4 -4 -7 -3 -12 3 -12 14 0 23 18 12 25 -5 3 -8 14 -6
25 5 27 -13 35 -34 16 -10 -9 -21 -13 -24 -9 -4 3 -8 -2 -8 -13 -1 -10 -2 -25
-3 -33 0 -8 -11 -15 -23 -16 -12 -1 -19 3 -17 10 3 6 -5 11 -17 12 -17 2 -18
-1 -9 -13 9 -10 9 -14 1 -14 -11 0 -15 13 -12 38 1 6 -5 12 -13 12 -15 0 -16
-16 -2 -39 6 -8 -1 -6 -16 5 -15 11 -21 22 -16 25 6 4 5 9 -3 12 -8 3 3 4 23
3 20 -1 35 1 32 5 -5 9 17 6 34 -5 10 -6 12 -3 10 10 -2 12 2 18 10 16 8 -1
11 2 7 8 -4 6 -1 9 6 8 7 -2 13 2 14 7 1 15 24 52 25 40 0 -6 -5 -16 -10 -23
-6 -6 -7 -10 -4 -7 4 3 13 0 21 -7 7 -6 16 -8 20 -4 3 3 1 6 -5 6 -9 0 -9 5 0
19 7 11 16 17 20 15 5 -3 5 -11 1 -17 -20 -31 -9 -48 16 -24 11 10 12 9 6 -3
-8 -13 -7 -13 8 -1 10 7 17 9 17 3 0 -6 -6 -12 -12 -15 -7 -3 -3 -4 8 -4 15 1
20 6 17 17 -4 13 -3 13 5 0 6 -8 8 -18 6 -22 -3 -4 0 -8 6 -8 7 0 9 7 6 16 -4
10 1 25 10 35 17 18 34 17 34 -2 0 -6 -4 -8 -8 -5 -12 7 -38 -12 -29 -21 5 -4
12 -1 17 7 9 13 10 13 10 0 0 -13 1 -13 10 0 9 13 10 13 10 0 0 -13 2 -13 11
0 9 13 10 12 5 -2 -3 -11 -1 -17 7 -15 7 1 11 -5 9 -14 -1 -9 9 -21 24 -27 19
-9 24 -9 18 -1 -4 8 -3 9 4 5 7 -4 12 -15 12 -24 0 -13 2 -14 9 -3 5 7 11 9
13 5 3 -5 3 -2 0 6 -2 8 -5 21 -5 28 0 6 -5 12 -10 12 -5 0 -6 -8 -2 -17 5
-14 4 -15 -6 -6 -14 14 -21 43 -10 43 24 0 46 -31 50 -72 1 -10 26 -4 26 7 0
6 -6 8 -15 7 -12 -3 -13 -1 -2 9 6 7 12 18 12 24 0 5 -5 3 -10 -5 -8 -13 -10
-13 -10 2 0 20 12 29 25 20 9 -6 14 -23 17 -59 2 -17 18 -17 18 0 0 8 11 24
25 37 14 13 25 19 25 13 0 -5 -9 -18 -20 -28 -28 -26 -25 -33 15 -32 40 1 41
3 20 24 -14 14 -14 18 0 39 8 13 15 27 15 31 0 4 -5 0 -11 -10 -9 -15 -13 -16
-27 -5 -9 7 -13 8 -9 2 4 -6 -2 -19 -13 -29 -21 -19 -28 -7 -8 13 9 9 9 12 0
12 -7 0 -12 -5 -12 -11 0 -5 -4 -8 -10 -4 -5 3 -7 12 -4 19 3 8 -2 20 -11 27
-38 33 -64 63 -58 71 3 5 -3 18 -13 29 -16 18 -16 19 5 19 12 0 20 -4 17 -9
-3 -5 5 -16 19 -25 23 -15 26 -15 31 -1 3 8 11 12 18 8 6 -3 7 -2 3 2 -14 16
-36 14 -30 -2 5 -13 3 -13 -15 -2 -11 7 -18 17 -16 21 9 14 -28 22 -47 10 -26
-17 -34 -15 -19 4 11 12 11 18 -2 30 -12 12 -17 13 -23 3 -5 -7 -4 -10 2 -6 6
4 13 0 17 -8 3 -8 1 -17 -4 -20 -6 -4 -10 -1 -10 6 0 7 -3 9 -6 6 -10 -10 17
-39 31 -33 13 5 35 -12 35 -27 0 -5 -7 -4 -15 3 -25 21 -17 3 11 -25 14 -14
23 -29 20 -32 -4 -4 -23 11 -43 32 -20 21 -34 31 -30 21 5 -12 3 -16 -5 -13
-7 2 -12 10 -10 17 1 7 0 21 -4 32 -6 19 -6 19 -21 -1 -8 -12 -19 -21 -25 -21
-6 0 -5 7 3 17 11 13 8 13 -12 -2 -15 -11 -25 -23 -22 -27 2 -5 0 -8 -4 -8 -5
0 -14 9 -21 21 -12 19 -11 20 6 15 11 -4 24 0 32 9 7 9 8 15 2 15 -6 0 -12 -6
-15 -12 -2 -7 -8 -9 -13 -5 -5 5 -1 15 10 23 11 8 16 14 11 14 -5 0 -20 -10
-33 -22 -21 -20 -24 -20 -19 -5 4 10 7 23 7 28 0 6 5 7 12 3 7 -4 8 -3 4 5 -9
14 -26 5 -26 -15 0 -8 -5 -12 -10 -9 -6 4 -7 12 -3 18 4 7 0 6 -10 -2 -18 -14
-23 -26 -8 -17 5 3 16 -6 26 -20 18 -29 15 -43 -5 -19 -15 18 -44 20 -37 3 6
-18 -12 -50 -23 -43 -6 4 -7 -2 -3 -12 3 -10 3 -15 -2 -11 -4 4 -16 3 -26 -3
-11 -5 -19 -7 -19 -4 0 9 45 50 52 48 15 -5 8 15 -8 21 -8 3 -12 2 -9 -3 3 -6
-3 -14 -12 -20 -10 -6 -15 -11 -11 -11 5 0 -1 -9 -12 -20 -12 -12 -18 -25 -15
-30 8 -13 3 -12 -30 0 -17 7 -24 7 -20 0 3 -6 12 -10 18 -10 7 0 13 -9 13 -20
0 -11 -5 -18 -11 -16 -5 2 -9 9 -7 15 1 7 -2 10 -7 7 -5 -3 -12 1 -15 10 -3 8
-10 13 -15 10 -5 -4 -12 0 -15 6 -3 7 -4 4 -3 -7 1 -12 -3 -19 -10 -18 -7 2
-13 -2 -13 -7 0 -15 11 -12 32 7 10 9 18 12 18 6 0 -15 -37 -46 -47 -40 -15
10 -10 -48 5 -59 12 -9 10 -11 -9 -9 -22 2 -24 6 -21 45 3 26 0 40 -6 36 -5
-3 -12 5 -14 19 -3 15 -1 25 6 25 6 0 4 5 -4 10 -12 8 -12 10 5 10 14 0 16 3
7 8 -7 5 -11 26 -10 48 0 23 -2 46 -6 52 -4 7 -4 12 1 12 4 0 8 25 8 55 0 44
-3 54 -14 50 -12 -5 -11 -2 1 12 23 25 23 25 9 51 -8 15 -8 22 -1 22 8 0 8 6
0 20 -6 12 -7 20 -1 20 5 0 7 9 4 19 -3 13 7 29 31 52 20 18 36 39 36 46 0 8
4 12 9 8 8 -5 16 8 23 40 3 12 53 55 63 55 4 0 13 7 19 16 7 8 25 17 41 20 17
2 41 6 55 8 14 2 26 5 28 6 1 1 8 3 15 4 6 1 11 8 9 16 -3 11 0 11 15 0 10 -8
15 -11 12 -7 -11 13 36 56 77 71 21 8 56 21 76 30 21 9 41 16 44 15 4 0 10 3
13 8 3 4 28 19 54 32 28 14 55 37 63 53 8 15 11 28 6 28 -4 0 -8 10 -9 23 -3
32 -64 147 -86 158 -18 10 -74 21 -92 19 -71 -9 -217 0 -270 17 -11 4 -33 8
-50 9 -59 6 -70 9 -82 24 -6 8 -9 18 -7 22 5 7 -24 26 -41 26 -5 0 -11 6 -14
13 -2 7 1 9 9 4 9 -5 11 -4 6 4 -10 15 -29 3 -22 -15 3 -8 -1 -14 -10 -14 -9
0 -12 5 -8 12 4 7 3 8 -4 4 -16 -10 -15 -43 1 -53 6 -4 23 -7 37 -6 l25 2 -25
-8 c-14 -4 -29 -5 -35 -1 -5 4 -19 6 -29 4 -22 -3 -99 30 -136 59 -14 11 -17
17 -8 14 12 -4 16 -1 15 14 -1 10 -7 19 -14 19 -7 0 -13 4 -13 10 0 5 8 7 18
3 15 -6 15 -4 -2 16 -20 22 -20 22 0 16 19 -7 19 -6 0 9 -11 9 -15 16 -9 16
14 0 24 38 11 46 -5 3 -7 17 -3 31 3 15 2 22 -4 19 -9 -6 -7 31 4 62 2 6 0 12
-5 12 -6 0 -6 10 0 26 9 23 8 25 -7 20 -16 -5 -16 -5 -2 6 11 10 14 21 8 41
-4 15 -4 27 -1 27 4 0 5 34 2 75 -3 47 -1 75 5 75 6 0 25 -28 44 -63 19 -34
37 -64 40 -67 3 -3 19 -22 34 -42 19 -26 36 -38 53 -38 38 0 55 13 104 78 49
66 80 92 80 68 0 -28 72 -179 96 -201 13 -12 24 -29 24 -38 0 -9 8 -15 19 -14
11 0 17 5 15 9 -5 8 11 12 29 9 5 -1 6 3 3 8 -6 10 42 61 56 61 5 0 8 7 8 15
0 8 4 15 9 15 5 0 14 14 21 30 7 16 17 30 23 30 6 0 8 3 4 6 -7 7 28 80 51
107 16 18 52 24 52 8 0 -19 47 -20 86 -1 27 13 48 34 64 63 70 127 128 195
172 206 4 1 26 8 47 16 36 12 40 12 44 -3 4 -16 5 -16 6 0 0 9 10 20 21 23 12
4 17 11 13 18 -4 8 -2 8 9 -1 13 -11 18 -7 33 25 10 21 31 57 46 80 16 23 29
46 29 51 0 6 7 12 15 16 8 3 15 12 15 21 0 8 5 15 10 15 6 0 10 6 10 14 0 7 6
18 13 24 23 20 5 168 -22 177 -9 3 -24 17 -33 32 -43 69 -100 138 -160 198
-61 59 -68 64 -105 61 -21 -2 -60 -11 -86 -21 -42 -16 -49 -16 -65 -3 -31 28
-66 42 -107 44 -28 1 -39 6 -36 16 7 30 7 88 -1 88 -5 0 -6 5 -3 10 4 6 12 7
18 3 9 -5 9 -3 0 8 -10 12 -9 18 7 32 11 9 17 23 14 31 -7 18 26 57 40 49 6
-4 2 4 -9 16 l-19 22 -18 -23 c-15 -18 -17 -19 -11 -4 4 13 3 17 -4 13 -7 -4
-10 0 -8 10 1 10 -3 24 -9 32 -9 12 -8 13 3 6 11 -6 13 -4 9 7 -4 9 0 15 8 15
17 0 18 -9 3 -24 -7 -7 -6 -12 5 -16 11 -4 13 -1 9 10 -4 10 -2 14 4 10 5 -3
10 0 10 8 0 8 -3 15 -6 15 -3 0 -14 7 -24 15 -15 11 -17 17 -7 32 10 15 11 15
6 1 -3 -12 -1 -15 10 -11 10 4 12 9 4 18 -5 6 -7 15 -3 18 3 4 3 7 -1 7 -4 0
-16 -10 -27 -22 l-19 -23 10 27 c11 32 -3 47 -19 21 -14 -24 -14 -7 -1 18 8
15 8 19 -2 17 -7 -2 -12 2 -11 8 1 6 -5 11 -13 11 -11 0 -11 -4 3 -19 14 -16
14 -18 0 -18 -15 0 -30 28 -36 69 0 5 -8 12 -17 15 -23 9 -44 -17 -38 -49 3
-17 1 -24 -6 -20 -5 3 -10 1 -10 -5 0 -6 -4 -8 -10 -5 -5 3 -18 1 -27 -5 -16
-10 -16 -11 -1 -6 14 4 15 1 8 -17 -4 -12 -13 -21 -20 -19 -7 1 -10 -3 -7 -10
2 -7 10 -12 17 -10 10 2 11 0 2 -11 -7 -8 -9 -17 -5 -21 4 -4 -1 -4 -11 0 -15
6 -17 4 -11 -6 5 -8 4 -11 -3 -6 -6 3 -13 2 -17 -3 -3 -6 -13 -7 -23 -4 -18 7
-17 5 12 -17 13 -10 17 -10 12 -2 -4 6 -3 12 2 12 6 0 13 -7 16 -16 3 -8 2
-12 -4 -9 -14 9 -12 -8 3 -25 9 -11 8 -11 -7 0 -18 13 -19 13 -14 -1 4 -9 1
-16 -7 -16 -8 0 -13 5 -12 10 1 5 -4 12 -10 14 -7 3 -13 0 -13 -7 0 -6 -5 -8
-10 -5 -6 4 -9 1 -8 -7 2 -7 14 -19 28 -26 22 -11 23 -12 3 -8 -28 5 -58 -35
-40 -53 6 -6 7 -11 1 -11 -5 0 -15 5 -22 12 -8 8 -12 9 -12 1 0 -6 6 -13 13
-16 8 -3 7 -10 -7 -23 -15 -15 -18 -16 -13 -3 3 9 1 22 -4 30 -8 11 -9 9 -7
-6 2 -12 -2 -19 -10 -17 -8 1 -11 -2 -6 -9 5 -8 2 -10 -7 -7 -10 4 -15 -1 -16
-16 -1 -11 -3 -31 -6 -43 -4 -14 -1 -23 5 -23 18 0 -1 -14 -24 -17 -18 -3 -19
-1 -8 12 7 9 10 18 7 22 -4 3 -9 -2 -13 -11 -3 -9 -10 -14 -14 -11 -4 2 -16
-5 -26 -18 -19 -22 -19 -22 2 -4 11 9 24 14 27 10 11 -10 8 -20 -5 -20 -7 0
-20 -2 -28 -4 -8 -2 -14 2 -12 9 1 6 -2 12 -7 12 -5 0 -12 7 -15 16 -4 10 -2
13 7 8 6 -4 -16 20 -50 53 -44 43 -69 60 -85 58 -13 -1 -23 -3 -23 -4 0 -2
-16 -4 -37 -6 -20 -1 -51 -8 -70 -13 -18 -6 -51 -13 -73 -16 -22 -3 -71 -12
-110 -21 -77 -18 -81 -18 -110 -12 -17 3 -19 11 -16 53 2 27 5 76 5 109 1 33
6 66 10 74 6 10 5 12 -2 7 -16 -10 -15 17 0 32 9 9 9 12 0 12 -8 0 -9 7 -2 25
6 17 6 25 -1 25 -6 0 -7 6 -3 12 11 18 12 48 2 48 -4 0 -3 8 4 19 10 16 22 18
96 16 101 -4 110 1 178 88 79 100 201 220 215 212 7 -5 10 -4 5 3 -8 13 22 44
35 36 5 -3 8 -2 7 3 -2 4 1 9 6 10 5 1 12 6 15 11 12 20 215 105 252 106 20 1
35 4 33 8 -6 9 33 21 45 14 5 -3 12 1 15 10 3 8 10 13 14 10 5 -3 9 0 10 7 1
7 4 31 8 55 3 25 2 42 -4 42 -5 0 -13 8 -16 17 -4 10 -4 14 0 11 8 -9 34 16
34 33 0 9 -3 9 -14 0 -11 -9 -16 -9 -22 0 -4 7 -3 9 4 5 6 -3 13 -2 17 4 4 6
10 8 15 5 5 -3 11 -1 14 4 3 5 -4 11 -15 14 -18 5 -21 11 -16 36 4 21 1 33
-10 43 -9 7 -14 8 -10 2 4 -7 0 -15 -9 -18 -28 -11 -35 -7 -25 12 6 11 6 24 0
33 -7 12 -9 12 -10 -1 -1 -8 -1 -18 0 -22 2 -15 -14 -8 -27 12 -13 21 -32 27
-32 10 0 -6 5 -9 11 -8 6 2 13 -7 15 -20 4 -22 3 -22 -21 5 -21 24 -26 26 -35
13 -8 -12 -10 -11 -10 7 0 17 -4 21 -17 16 -12 -5 -14 -3 -8 8 8 12 6 12 -8 0
-9 -7 -14 -18 -10 -24 3 -5 1 -7 -5 -4 -11 8 -11 24 2 47 7 12 6 13 -5 3 -20
-19 -32 -16 -26 7 8 32 -3 23 -15 -11 -7 -20 -13 -27 -18 -19 -6 9 -11 7 -19
-6 -10 -18 -10 -18 -11 2 0 21 -17 44 -34 44 -5 0 -1 -7 10 -15 10 -8 15 -15
9 -14 -20 4 -46 -13 -38 -25 5 -7 0 -3 -10 8 -16 17 -20 18 -43 5 -23 -12 -27
-11 -36 4 -9 17 -11 17 -27 -2 -22 -25 -36 -27 -27 -5 5 14 4 15 -9 4 -12 -10
-15 -10 -15 4 0 9 -4 16 -10 16 -5 0 -9 -3 -9 -7 1 -5 1 -17 0 -27 -1 -20 -1
-20 -16 0 -8 10 -15 15 -14 9 3 -22 -2 -29 -11 -15 -6 10 -10 11 -10 3 0 -7
-5 -13 -11 -13 -5 0 -7 5 -4 10 6 9 -1 12 -22 9 -4 0 -11 8 -15 18 -7 16 -8
16 -5 -2 2 -11 9 -19 18 -17 11 3 11 1 2 -9 -9 -9 -16 -9 -26 -1 -8 7 -17 9
-20 5 -4 -3 -7 -1 -7 5 0 6 -7 9 -15 6 -8 -4 -12 -10 -9 -15 3 -5 0 -9 -5 -9
-15 0 -14 27 2 33 7 4 8 6 1 6 -6 1 -17 -6 -24 -14 -19 -23 -32 -18 -19 8 11
20 11 21 -4 8 -10 -7 -17 -23 -18 -35 0 -20 -1 -20 -10 2 -5 13 -6 29 -3 35 3
7 -2 3 -11 -8 -13 -17 -17 -18 -25 -5 -8 12 -10 12 -16 -3 -3 -9 -11 -14 -17
-10 -5 3 -7 1 -4 -5 4 -5 4 -17 1 -26 -5 -14 -9 -14 -22 -4 -12 10 -14 10 -8
1 8 -14 -15 -18 -28 -5 -4 4 -12 8 -17 8 -5 1 -13 2 -18 3 -5 0 -16 8 -24 15
-8 8 -27 17 -43 20 -16 2 -31 5 -34 6 -3 1 -8 2 -11 2 -4 -1 -22 3 -40 9 -19
6 -47 13 -63 15 -16 2 -35 12 -43 21 -8 10 -12 12 -8 6 3 -7 3 -13 -2 -14 -38
-5 -69 -3 -75 6 -5 6 -8 5 -8 -2 0 -7 -7 -13 -15 -13 -13 0 -19 12 -16 32 0 4
-5 5 -13 2 -8 -3 -17 0 -22 7 -5 8 -3 10 6 4 9 -5 11 -4 6 4 -5 7 -17 9 -29 5
-22 -6 -22 -6 -2 10 19 16 19 16 -5 8 -39 -13 -77 -1 -64 19 3 6 -5 8 -20 5
-15 -3 -26 0 -26 6 0 6 -3 8 -7 4 -5 -4 1 -15 12 -23 20 -16 20 -16 0 -8 -31
12 -136 6 -146 -8 -3 -4 -23 -2 -45 5 l-39 13 2 58 c1 39 -2 55 -9 51 -7 -5
-8 -2 -2 7 9 14 10 18 13 73 l1 28 20 -23 c10 -13 19 -18 20 -11 0 6 -4 12 -9
12 -5 0 -11 9 -14 20 -3 11 -1 20 5 20 5 0 7 4 3 9 -3 5 -1 13 5 16 8 5 7 11
-1 21 -11 14 1 20 15 7 10 -11 37 -12 30 -2 -3 5 -10 6 -16 3 -8 -5 -9 -1 -5
10 4 10 1 24 -8 32 -13 14 -15 13 -16 -3 0 -16 -1 -16 -9 2 -8 19 -11 18 -14
-4 0 -5 -5 -13 -11 -18 -6 -4 -7 -4 -3 1 4 5 2 16 -5 24 -10 13 -9 14 2 8 9
-6 12 -4 9 5 -3 8 -10 14 -16 14 -5 0 -14 4 -19 9 -5 5 -3 6 5 2 6 -4 12 -2
12 4 0 7 7 5 16 -4 19 -20 21 -20 21 -1 0 8 -5 11 -10 8 -5 -3 -7 0 -5 8 3 8
11 13 17 11 7 -1 10 2 6 8 -3 6 -12 7 -18 3 -16 -10 -55 -15 -42 -6 14 11 18
50 6 58 -7 4 -8 -1 -4 -12 3 -10 2 -15 -2 -10 -5 4 -9 17 -10 30 -1 14 -8 21
-18 19 -19 -3 -39 30 -31 52 9 23 -27 37 -51 20z m1485 -683 c0 -5 -7 -12 -16
-15 -14 -5 -15 -4 -4 9 14 17 20 19 20 6z m58 -16 c-3 -3 -9 2 -12 12 -6 14
-5 15 5 6 7 -7 10 -15 7 -18z m314 -57 c-7 -7 -12 -8 -12 -2 0 14 12 26 19 19
2 -3 -1 -11 -7 -17z m-102 -1074 c0 -3 -4 -3 -9 0 -5 4 -8 -11 -6 -33 3 -34 0
-39 -16 -38 -10 1 -19 6 -19 12 0 5 -4 3 -9 -5 -6 -8 -8 -17 -6 -20 2 -4 -2
-7 -10 -7 -8 0 -15 3 -15 6 0 10 44 51 54 51 6 0 4 -5 -4 -11 -12 -8 -12 -10
-1 -7 8 2 15 12 17 21 1 9 -2 15 -7 11 -18 -11 -29 6 -17 26 9 14 16 16 30 9
10 -5 18 -12 18 -15z m33 -81 c-4 -10 -2 -14 4 -10 7 5 11 -17 11 -62 0 -62
-2 -69 -19 -68 -10 1 -19 5 -19 9 0 8 -15 6 -76 -6 -15 -3 -26 4 -38 24 -10
18 -13 31 -6 35 5 3 10 2 10 -2 0 -5 7 -18 16 -29 15 -18 15 -18 5 3 -14 27
-14 43 -1 43 6 0 10 -9 10 -19 0 -11 4 -22 9 -25 5 -4 7 2 4 13 -3 10 0 22 6
25 5 4 7 14 4 24 -6 15 -3 14 18 -3 l24 -20 -21 25 c-33 39 -36 49 -17 46 10
-2 18 -8 18 -14 0 -6 4 -14 9 -19 5 -5 6 -3 2 5 -6 9 -3 12 9 10 18 -3 30 28
15 37 -5 3 -7 -4 -5 -15 2 -11 0 -18 -5 -15 -7 4 -7 20 -1 43 1 1 10 -2 21 -8
12 -7 17 -16 13 -27z m-143 -8 c-10 -12 -9 -16 4 -21 9 -3 13 -10 10 -15 -9
-15 3 -10 17 8 8 9 9 14 4 11 -6 -4 -17 -2 -25 3 -11 7 -8 8 10 5 14 -3 27 -5
30 -5 3 -1 6 -10 6 -20 0 -23 -34 -23 -63 0 -16 13 -17 12 -4 -3 10 -13 11
-22 3 -31 -9 -10 -8 -19 3 -34 14 -19 11 -33 -6 -33 -5 0 -6 8 -3 18 3 9 -2 6
-10 -8 -8 -14 -15 -20 -16 -14 0 8 -13 10 -36 7 -25 -3 -35 -1 -32 7 2 6 6 10
10 8 3 -2 15 6 27 16 12 11 21 15 21 11 0 -14 24 13 26 30 1 8 -2 15 -8 15 -6
0 -6 6 2 15 6 8 9 18 6 24 -3 5 0 12 6 14 24 10 30 7 18 -8z m631 -253 c-7 -2
-23 6 -35 18 l-21 22 35 -18 c21 -10 30 -19 21 -22z m-1721 -21 c3 -2 -3 -1
-12 2 -10 4 -18 2 -18 -3 0 -6 5 -10 11 -10 5 0 7 -5 4 -11 -5 -6 -12 -4 -20
8 -8 10 -9 19 -4 21 6 3 5 11 -3 20 -11 15 4 5 42 -27z m-780 -1091 c-8 -5
-19 -10 -25 -10 -5 0 -3 5 5 10 8 5 20 10 25 10 6 0 3 -5 -5 -10z m243 -34 c4
-10 1 -13 -9 -9 -7 3 -14 9 -14 14 0 14 17 10 23 -5z m97 -222 c0 -9 -5 -13
-12 -9 -7 4 -4 0 6 -9 30 -24 5 -45 -47 -41 -23 1 -46 0 -52 -3 -34 -21 -34
-5 0 25 22 19 39 39 37 45 -1 5 2 7 8 3 6 -3 8 -11 5 -16 -4 -5 5 -4 19 2 14
7 23 16 19 22 -3 6 -1 7 5 3 7 -4 12 -14 12 -22z m-110 -29 c-7 -8 -17 -12
-22 -9 -5 3 -1 12 9 19 22 17 30 11 13 -10z m1433 -68 c6 -15 -29 -21 -38 -6
-3 5 1 6 9 3 9 -3 16 -1 16 5 0 15 7 14 13 -2z m33 -5 c-3 -3 -1 -11 6 -19 6
-7 9 -15 6 -18 -2 -2 -12 9 -22 25 -15 26 -15 29 -1 24 9 -4 13 -9 11 -12z
m-1736 -6 c0 -6 -92 -66 -102 -66 -17 0 28 38 62 53 43 19 40 18 40 13z m416
-27 c4 -8 9 -7 15 2 6 10 9 10 9 2 0 -7 6 -10 13 -8 6 3 19 1 27 -5 12 -7 12
-12 2 -22 -9 -9 -12 -9 -12 1 0 11 -3 11 -15 1 -8 -7 -12 -16 -9 -21 3 -5 3
-9 -1 -9 -3 0 -10 12 -15 26 -7 17 -15 24 -25 20 -9 -3 -15 0 -15 9 0 18 16
20 26 4z m154 -19 c0 -5 -5 -10 -11 -10 -5 0 -7 5 -4 10 3 6 8 10 11 10 2 0 4
-4 4 -10z m-695 -20 c10 -11 16 -20 13 -20 -3 0 -13 9 -23 20 -10 11 -16 20
-13 20 3 0 13 -9 23 -20z m2185 -1006 c0 -8 -4 -13 -9 -10 -27 17 -16 -57 12
-75 12 -9 47 1 47 13 0 5 -4 7 -9 4 -5 -3 -14 1 -21 9 -7 8 -19 15 -26 15 -8
0 -14 5 -14 10 0 13 17 13 25 -1 4 -6 13 -8 20 -5 7 2 21 -4 30 -14 15 -17 15
-21 1 -48 -8 -16 -12 -32 -9 -36 4 -3 0 -6 -8 -6 -12 0 -11 -2 1 -11 13 -9 13
-10 0 -6 -8 2 -15 8 -15 13 -1 22 -27 54 -38 48 -7 -4 -9 -4 -5 1 4 4 -3 16
-15 27 -12 11 -16 16 -9 13 11 -6 12 -3 3 14 -15 27 -19 27 -16 -4 2 -13 -4
-30 -12 -37 -20 -17 -85 -19 -79 -2 2 6 -1 17 -7 23 -9 9 -16 6 -30 -11 l-18
-23 12 25 c6 14 18 33 26 42 8 9 12 22 8 29 -5 7 -3 10 6 7 8 -3 13 -13 12
-22 -2 -9 -4 -23 -5 -32 -5 -32 40 -23 64 12 12 17 27 30 33 27 7 -2 18 3 25
12 16 19 20 19 20 -1z m15 -65 c11 -17 -1 -21 -15 -4 -8 9 -8 15 -2 15 6 0 14
-5 17 -11z m-245 -24 c-5 -7 -9 -14 -7 -16 1 -2 0 -3 -2 -2 -2 2 -10 -2 -18
-8 -8 -7 -13 -8 -13 -1 0 5 7 13 16 16 8 3 13 10 10 14 -3 5 1 9 9 9 10 0 12
-4 5 -12z m378 -23 c2 -7 -1 -12 -7 -12 -6 0 -11 5 -11 12 0 6 -6 4 -13 -6
-11 -15 -17 -16 -35 -7 -24 13 -20 38 6 44 19 4 54 -14 60 -31z m-447 -19 c7
-10 10 -15 5 -11 -4 4 -20 2 -34 -3 -26 -10 -26 -10 -7 10 22 25 19 25 36 4z
m463 -29 c3 -8 2 -12 -4 -9 -6 3 -10 10 -10 16 0 14 7 11 14 -7z m-576 -29 c0
-14 -5 -25 -10 -25 -5 0 -7 4 -3 9 3 5 1 12 -5 16 -6 4 -8 11 -5 16 11 17 23
9 23 -16z m635 11 c4 -10 0 -14 -13 -13 -14 1 -16 4 -8 14 13 16 15 16 21 -1z
m-1746 -1072 c21 -3 81 -6 133 -7 107 -3 128 -10 108 -34 -7 -9 -13 -19 -12
-22 0 -3 -6 -22 -14 -41 -8 -19 -16 -58 -18 -87 -4 -89 -15 -153 -27 -154 -7
0 -25 -3 -42 -6 -38 -7 -162 -8 -195 -1 -84 17 -160 86 -151 138 4 22 5 22 37
5 26 -14 30 -13 42 2 6 9 12 13 12 8 0 -4 9 0 20 10 25 23 25 30 -2 67 -20 29
-20 33 -6 72 14 38 52 71 69 60 4 -2 25 -7 46 -10z m-235 -627 c20 -9 43 -14
52 -11 10 4 16 1 16 -9 0 -15 -20 -27 -47 -27 -18 0 -73 54 -73 72 0 8 3 9 8
2 4 -5 23 -18 44 -27z m2368 1 c75 -21 108 -34 123 -50 10 -10 22 -18 28 -18
6 0 7 -4 4 -10 -3 -5 -1 -10 5 -10 8 0 11 -14 8 -40 -2 -22 1 -41 6 -43 5 -2
0 -13 -11 -24 -12 -12 -19 -24 -15 -27 11 -11 -13 -6 -67 15 -60 22 -168 28
-213 10 -33 -12 -47 2 -24 25 9 8 16 20 16 25 0 6 5 7 10 4 6 -3 10 1 10 11 0
12 6 15 25 12 33 -7 43 10 11 18 -29 7 -42 45 -20 57 8 4 12 13 8 18 -3 5 0
17 7 25 12 15 40 15 89 2z m226 -1545 c-3 -32 -29 -103 -38 -103 -4 0 -7 -3
-6 -7 3 -11 -26 -68 -72 -143 -22 -36 -44 -74 -49 -85 -5 -11 -28 -44 -50 -74
-23 -30 -41 -59 -41 -63 0 -5 -4 -6 -10 -3 -5 3 -10 0 -10 -9 0 -8 -3 -16 -7
-18 -5 -1 -30 -30 -58 -63 -27 -33 -54 -65 -60 -71 -5 -6 -37 -41 -70 -78
-104 -118 -218 -233 -270 -272 -27 -20 -62 -49 -76 -63 -14 -14 -49 -46 -78
-71 -29 -25 -58 -50 -64 -56 -23 -20 -126 -94 -132 -94 -4 0 -12 -6 -20 -12
-29 -28 -55 -47 -55 -41 0 3 -10 -3 -22 -14 -23 -20 -86 -49 -92 -42 -2 2 -6
22 -9 44 -3 22 -8 55 -12 73 -7 31 -3 37 86 126 83 82 222 251 191 232 -8 -5
-10 -2 -6 9 4 9 11 14 17 12 12 -4 67 51 67 66 0 4 5 5 10 2 6 -3 10 0 10 7 0
7 18 33 40 57 22 25 40 48 40 53 0 4 0 11 1 16 1 14 154 153 179 163 14 6 46
12 73 13 68 5 170 58 231 122 166 172 197 206 208 229 6 14 15 25 20 25 16 0
86 79 104 115 17 37 32 46 30 18z m-2193 -1027 c35 -15 59 -24 67 -23 3 0 23
-9 45 -20 22 -12 45 -22 50 -23 11 -3 46 -16 85 -32 14 -6 30 -12 35 -14 38
-10 120 -51 123 -62 1 -6 -4 -11 -10 -10 -7 2 -12 -3 -10 -11 3 -12 0 -12 -13
-1 -13 11 -14 10 -9 -5 5 -12 4 -16 -3 -12 -7 5 -9 0 -6 -13 4 -14 0 -20 -12
-20 -11 0 -15 -5 -11 -16 3 -8 2 -12 -4 -9 -6 3 -10 1 -10 -5 0 -6 -5 -8 -12
-4 -10 6 -10 4 0 -8 10 -13 10 -18 1 -24 -8 -5 -10 -3 -4 7 5 8 -4 1 -18 -14
-15 -15 -27 -32 -27 -36 0 -4 -8 -15 -19 -25 -15 -14 -20 -14 -29 -3 -7 8 -9
17 -5 20 3 4 1 7 -6 7 -7 0 -9 5 -6 10 3 6 0 10 -7 10 -7 0 -19 13 -26 28 -6
16 -21 38 -32 50 -14 14 -16 22 -8 23 7 0 4 4 -7 8 -11 5 -20 13 -20 19 0 6
-10 22 -22 36 -13 14 -20 26 -15 26 4 1 -3 9 -15 19 -12 10 -19 21 -16 25 4 3
1 6 -6 6 -7 0 -9 5 -6 10 3 6 -1 13 -9 16 -9 3 -13 10 -10 15 3 5 -2 12 -10
15 -9 3 -14 10 -11 14 3 4 -1 10 -9 13 -8 3 -13 14 -11 24 5 28 6 29 12 16 2
-7 19 -19 36 -27z"/>
<path d="M5855 8501 c-3 -6 -10 -9 -15 -6 -4 3 -13 -1 -18 -8 -9 -10 -6 -13
13 -13 13 0 22 3 19 7 -2 4 2 9 8 12 7 2 10 7 7 11 -4 4 -10 2 -14 -3z"/>
<path d="M4316 6933 c-6 -14 -5 -15 5 -6 7 7 10 15 7 18 -3 3 -9 -2 -12 -12z"/>
<path d="M5945 5720 c-3 -5 -13 -7 -23 -4 -13 5 -14 4 -3 -4 17 -12 44 -9 49
6 4 14 -14 16 -23 2z"/>
<path d="M6067 5693 c-10 -10 -8 -23 4 -23 5 0 8 4 5 9 -4 5 0 12 6 14 7 3 8
6 2 6 -6 1 -14 -2 -17 -6z"/>
<path d="M6133 5685 c0 -8 4 -12 9 -9 4 3 8 9 8 15 0 5 -4 9 -8 9 -5 0 -9 -7
-9 -15z"/>
<path d="M4719 10483 c-32 -16 -48 -34 -54 -62 -3 -12 -7 -30 -9 -40 -9 -39
15 -88 54 -110 68 -38 133 -23 165 39 29 56 9 144 -38 169 -32 17 -88 19 -118
4z"/>
<path d="M4316 10473 c-6 -14 -5 -15 5 -6 7 7 10 15 7 18 -3 3 -9 -2 -12 -12z"/>
<path d="M4110 10440 c0 -5 5 -10 11 -10 5 0 7 5 4 10 -3 6 -8 10 -11 10 -2 0
-4 -4 -4 -10z"/>
<path d="M4155 10440 c3 -5 8 -10 11 -10 2 0 4 5 4 10 0 6 -5 10 -11 10 -5 0
-7 -4 -4 -10z"/>
<path d="M4375 10420 c3 -5 8 -10 11 -10 2 0 4 5 4 10 0 6 -5 10 -11 10 -5 0
-7 -4 -4 -10z"/>
<path d="M4380 10385 c-7 -9 -8 -15 -2 -15 5 0 12 7 16 15 3 8 4 15 2 15 -2 0
-9 -7 -16 -15z"/>
<path d="M4120 10320 c0 -5 5 -10 11 -10 5 0 7 5 4 10 -3 6 -8 10 -11 10 -2 0
-4 -4 -4 -10z"/>
<path d="M4450 10211 c-8 -6 -17 -8 -20 -6 -3 2 -7 -6 -7 -18 -2 -20 -1 -20 8
-4 6 9 14 15 19 12 4 -3 10 2 14 10 6 17 6 18 -14 6z"/>
<path d="M4477 10193 c-10 -9 -9 -23 1 -23 5 0 9 7 9 15 0 17 -1 18 -10 8z"/>
<path d="M4440 10162 c0 -16 28 -34 47 -29 14 4 13 5 -4 6 -13 0 -22 6 -20 12
1 6 -4 14 -10 16 -7 3 -13 0 -13 -5z"/>
<path d="M4495 10160 c-3 -5 -1 -10 4 -10 6 0 11 5 11 10 0 6 -2 10 -4 10 -3
0 -8 -4 -11 -10z"/>
<path d="M4430 10120 c-11 -7 -11 -10 -2 -10 7 0 10 -4 7 -10 -3 -5 0 -7 9 -4
11 4 14 0 11 -14 -3 -17 0 -19 21 -13 13 3 23 10 23 15 0 5 5 13 13 18 10 8
10 9 -2 5 -8 -2 -14 -10 -12 -16 1 -6 -7 -11 -19 -11 -11 0 -17 5 -14 10 3 6
-1 13 -9 16 -9 3 -13 10 -10 15 7 11 3 11 -16 -1z"/>
<path d="M4545 10120 c18 -28 14 -41 -8 -35 -20 5 -20 5 -4 -5 31 -20 48 19
19 42 -13 11 -14 11 -7 -2z"/>
<path d="M4510 10059 c0 -5 5 -7 10 -4 6 3 11 1 11 -4 1 -6 2 -17 3 -23 2 -20
41 -21 56 -2 17 20 22 44 8 44 -6 0 -8 -7 -5 -15 4 -8 2 -17 -3 -20 -6 -4 -10
-2 -10 3 0 6 -8 13 -17 16 -15 6 -15 4 2 -14 18 -20 18 -20 -5 -20 -13 0 -20
3 -17 6 8 9 -11 44 -23 44 -6 0 -10 -5 -10 -11z"/>
<path d="M4650 10065 c0 -5 5 -17 10 -25 5 -8 10 -10 10 -5 0 6 -5 17 -10 25
-5 8 -10 11 -10 5z"/>
<path d="M4478 10043 c7 -3 16 -2 19 1 4 3 -2 6 -13 5 -11 0 -14 -3 -6 -6z"/>
<path d="M4615 10031 c-3 -6 5 -15 17 -22 13 -7 26 -17 30 -23 4 -6 6 -1 6 11
-2 14 -7 19 -17 15 -9 -3 -12 -1 -7 6 5 8 1 10 -10 5 -12 -4 -15 -3 -10 5 4 7
5 12 2 12 -3 0 -7 -4 -11 -9z"/>
<path d="M4510 10013 c5 -2 8 -9 5 -13 -3 -5 -1 -11 4 -14 5 -4 8 2 7 11 -2 9
-8 18 -15 19 -6 1 -7 0 -1 -3z"/>
<path d="M4590 10000 c0 -5 5 -10 10 -10 6 0 10 5 10 10 0 6 -4 10 -10 10 -5
0 -10 -4 -10 -10z"/>
<path d="M4540 9984 c0 -1 8 -8 17 -15 14 -12 16 -12 8 0 -6 11 -4 13 9 8 9
-4 15 -3 11 2 -4 8 -45 12 -45 5z"/>
<path d="M4628 9983 c7 -3 16 -2 19 1 4 3 -2 6 -13 5 -11 0 -14 -3 -6 -6z"/>
<path d="M4674 9965 c-10 -8 -17 -15 -14 -15 31 -7 41 -7 47 2 4 7 1 8 -7 3
-10 -6 -12 -4 -7 8 8 21 6 21 -19 2z"/>
<path d="M4718 9973 c7 -3 16 -2 19 1 4 3 -2 6 -13 5 -11 0 -14 -3 -6 -6z"/>
<path d="M4756 9947 c3 -10 9 -15 12 -12 3 3 0 11 -7 18 -10 9 -11 8 -5 -6z"/>
<path d="M4869 9903 c-13 -16 -12 -17 4 -4 9 7 17 15 17 17 0 8 -8 3 -21 -13z"/>
<path d="M6505 9240 c-57 -29 -83 -106 -58 -170 22 -55 59 -84 108 -83 60 1
133 52 136 95 1 10 2 28 4 41 1 12 -10 43 -23 70 -22 41 -37 53 -64 48 -5 0
-8 2 -8 7 0 13 -64 8 -95 -8z"/>
<path d="M6080 8960 c-9 -6 -10 -10 -3 -10 6 0 15 5 18 10 8 12 4 12 -15 0z"/>
<path d="M6261 8956 c-9 -11 -9 -16 1 -22 7 -4 10 -4 6 1 -4 4 -3 14 3 22 6 7
9 13 6 13 -2 0 -10 -6 -16 -14z"/>
<path d="M6295 8949 c-4 -6 -5 -12 -2 -15 2 -3 7 2 10 11 7 17 1 20 -8 4z"/>
<path d="M6015 8940 c-3 -5 -1 -10 4 -10 6 0 11 5 11 10 0 6 -2 10 -4 10 -3 0
-8 -4 -11 -10z"/>
<path d="M5345 8897 c-37 -46 -37 -44 -11 -70 35 -35 63 -26 71 24 4 21 4 43
0 49 -9 14 -48 12 -60 -3z"/>
<path d="M6030 8902 c0 -5 7 -9 15 -9 8 0 15 4 15 9 0 4 -7 8 -15 8 -8 0 -15
-4 -15 -8z"/>
<path d="M6000 8880 c8 -5 20 -10 25 -10 6 0 3 5 -5 10 -8 5 -19 10 -25 10 -5
0 -3 -5 5 -10z"/>
<path d="M6000 8855 c0 -8 29 -12 39 -5 9 5 4 8 -13 8 -14 0 -26 -2 -26 -3z"/>
<path d="M6286 8848 c3 -5 10 -6 15 -3 13 9 11 12 -6 12 -8 0 -12 -4 -9 -9z"/>
<path d="M5987 8839 c7 -7 15 -10 18 -7 3 3 -2 9 -12 12 -14 6 -15 5 -6 -5z"/>
<path d="M6356 8838 c3 -5 10 -6 15 -3 13 9 11 12 -6 12 -8 0 -12 -4 -9 -9z"/>
<path d="M5949 8803 c-13 -16 -12 -17 4 -4 16 13 21 21 13 21 -2 0 -10 -8 -17
-17z"/>
<path d="M5980 8786 c0 -2 7 -7 16 -10 8 -3 12 -2 9 4 -6 10 -25 14 -25 6z"/>
<path d="M4202 8773 c-16 -3 -22 -10 -18 -19 3 -8 1 -12 -4 -9 -5 3 -17 -20
-26 -51 -21 -75 -8 -126 39 -151 18 -9 35 -16 40 -15 4 1 7 -3 7 -9 0 -5 4 -8
9 -4 5 3 12 1 15 -3 13 -22 58 -2 92 40 33 42 46 98 22 98 -9 0 -8 4 2 10 10
6 11 10 3 10 -18 0 -53 37 -45 46 4 4 -1 4 -10 1 -13 -4 -18 -1 -18 10 0 9 -3
14 -6 10 -4 -3 -15 4 -26 16 -11 12 -17 16 -13 10 3 -7 1 -13 -4 -13 -6 0 -11
7 -11 15 0 15 -6 16 -48 8z m79 -146 c-10 -9 -11 -8 -5 6 3 10 9 15 12 12 3
-3 0 -11 -7 -18z"/>
<path d="M5916 8718 c3 -4 9 -8 15 -8 5 0 9 4 9 8 0 5 -7 9 -15 9 -8 0 -12 -4
-9 -9z"/>
<path d="M5895 8700 c-3 -5 -1 -10 4 -10 6 0 11 5 11 10 0 6 -2 10 -4 10 -3 0
-8 -4 -11 -10z"/>
<path d="M5776 8557 c3 -10 9 -15 12 -12 3 3 0 11 -7 18 -10 9 -11 8 -5 -6z"/>
<path d="M4815 8420 c-3 -5 -1 -10 4 -10 6 0 11 5 11 10 0 6 -2 10 -4 10 -3 0
-8 -4 -11 -10z"/>
<path d="M4760 8400 c-9 -6 -10 -10 -3 -10 6 0 15 5 18 10 8 12 4 12 -15 0z"/>
<path d="M4677 8319 c7 -7 15 -10 18 -7 3 3 -2 9 -12 12 -14 6 -15 5 -6 -5z"/>
<path d="M4413 8290 c-1 -11 1 -22 5 -24 4 -2 8 7 8 20 1 13 -1 24 -5 24 -4 0
-7 -9 -8 -20z"/>
<path d="M4810 7503 c-36 -15 -69 -50 -70 -75 0 -9 -4 -19 -8 -22 -5 -3 -8
-15 -6 -28 1 -13 3 -32 3 -44 1 -11 17 -40 38 -63 l36 -43 61 7 c33 3 64 11
68 18 4 7 8 8 8 3 0 -5 10 -1 21 10 37 33 58 107 37 131 -6 7 -7 13 -3 13 4 0
1 8 -6 17 -12 14 -12 16 0 8 7 -4 3 6 -10 24 -12 17 -29 31 -36 31 -7 0 -13 4
-13 9 0 5 -8 8 -17 6 -10 -1 -22 0 -28 3 -17 11 -43 9 -75 -5z"/>
<path d="M6556 7428 c4 -7 3 -8 -4 -4 -10 6 -72 -46 -72 -60 0 -14 23 -45 40
-54 44 -23 110 48 80 85 -7 8 -9 15 -4 15 11 1 -27 30 -39 30 -4 0 -5 -5 -1
-12z"/>
<path d="M4000 7380 c8 -5 20 -10 25 -10 6 0 3 5 -5 10 -8 5 -19 10 -25 10 -5
0 -3 -5 5 -10z"/>
<path d="M4215 7340 c3 -5 8 -10 11 -10 2 0 4 5 4 10 0 6 -5 10 -11 10 -5 0
-7 -4 -4 -10z"/>
<path d="M4020 7330 c-9 -6 -10 -10 -3 -10 6 0 15 5 18 10 8 12 4 12 -15 0z"/>
<path d="M4273 7325 c0 -8 4 -12 9 -9 5 3 6 10 3 15 -9 13 -12 11 -12 -6z"/>
<path d="M4005 7300 c3 -5 8 -10 11 -10 2 0 4 5 4 10 0 6 -5 10 -11 10 -5 0
-7 -4 -4 -10z"/>
<path d="M3950 7280 c0 -5 5 -10 11 -10 5 0 7 5 4 10 -3 6 -8 10 -11 10 -2 0
-4 -4 -4 -10z"/>
<path d="M6239 7253 c0 -5 -2 -16 -4 -25 -2 -10 1 -20 6 -24 5 -3 9 -14 9 -25
0 -29 44 -25 69 7 l21 26 -23 24 c-21 22 -76 34 -78 17z"/>
<path d="M3935 7240 c-3 -5 -1 -10 4 -10 6 0 11 5 11 10 0 6 -2 10 -4 10 -3 0
-8 -4 -11 -10z"/>
<path d="M4304 7145 c-4 -8 -10 -13 -14 -10 -5 3 -11 1 -14 -4 -4 -5 1 -8 10
-7 15 2 42 36 29 36 -3 0 -8 -7 -11 -15z"/>
<path d="M4320 7135 c0 -5 5 -17 10 -25 5 -8 10 -10 10 -5 0 6 -5 17 -10 25
-5 8 -10 11 -10 5z"/>
<path d="M5610 6920 c0 -5 5 -10 11 -10 5 0 7 5 4 10 -3 6 -8 10 -11 10 -2 0
-4 -4 -4 -10z"/>
<path d="M5507 6899 c7 -7 15 -10 18 -7 3 3 -2 9 -12 12 -14 6 -15 5 -6 -5z"/>
<path d="M5593 6893 c20 -5 22 -14 5 -31 -8 -8 -8 -12 -1 -12 13 0 25 28 17
41 -3 5 -13 8 -22 8 -15 -1 -15 -2 1 -6z"/>
<path d="M5567 6879 c7 -7 15 -10 18 -7 3 3 -2 9 -12 12 -14 6 -15 5 -6 -5z"/>
<path d="M5786 6882 c-3 -5 1 -9 9 -9 8 0 12 4 9 9 -3 4 -7 8 -9 8 -2 0 -6 -4
-9 -8z"/>
<path d="M6096 6013 c-6 -14 -5 -15 5 -6 7 7 10 15 7 18 -3 3 -9 -2 -12 -12z"/>
<path d="M6130 6019 c0 -5 5 -7 10 -4 6 3 10 8 10 11 0 2 -4 4 -10 4 -5 0 -10
-5 -10 -11z"/>
<path d="M6115 5980 c3 -5 8 -10 11 -10 2 0 4 5 4 10 0 6 -5 10 -11 10 -5 0
-7 -4 -4 -10z"/>
<path d="M6174 5962 c4 -3 14 -7 22 -8 9 -1 13 0 10 4 -4 3 -14 7 -22 8 -9 1
-13 0 -10 -4z"/>
<path d="M5990 5939 c0 -5 5 -7 10 -4 6 3 10 8 10 11 0 2 -4 4 -10 4 -5 0 -10
-5 -10 -11z"/>
<path d="M6174 5926 c1 -8 5 -18 8 -22 4 -3 5 1 4 10 -1 8 -5 18 -8 22 -4 3
-5 -1 -4 -10z"/>
<path d="M5999 5913 c-13 -16 -12 -17 4 -4 9 7 17 15 17 17 0 8 -8 3 -21 -13z"/>
<path d="M6141 5916 c-9 -11 -9 -16 0 -22 7 -4 9 -3 5 4 -3 5 0 12 6 15 7 2
10 7 7 11 -3 4 -12 0 -18 -8z"/>
<path d="M6270 5920 c0 -5 5 -10 11 -10 5 0 7 5 4 10 -3 6 -8 10 -11 10 -2 0
-4 -4 -4 -10z"/>
<path d="M5955 5900 c-3 -5 -1 -10 4 -10 6 0 11 5 11 10 0 6 -2 10 -4 10 -3 0
-8 -4 -11 -10z"/>
<path d="M6110 5901 c0 -10 29 -36 34 -30 1 2 -6 12 -16 22 -10 9 -18 13 -18
8z"/>
<path d="M6214 5880 c0 -13 4 -16 10 -10 7 7 7 13 0 20 -6 6 -10 3 -10 -10z"/>
<path d="M5717 5873 c3 -7 1 -13 -3 -14 -52 -4 -60 -12 -36 -35 19 -19 36 -53
34 -66 -1 -3 5 -12 13 -18 12 -10 16 -9 21 4 4 11 13 15 28 11 11 -4 16 -3 11
2 -6 4 -10 20 -10 34 1 21 -3 25 -20 21 -19 -5 -19 -4 -3 11 13 13 14 21 5 40
-11 23 -49 33 -40 10z m0 -85 c-3 -8 -6 -5 -6 6 -1 11 2 17 5 13 3 -3 4 -12 1
-19z"/>
<path d="M5990 5880 c0 -5 5 -10 10 -10 6 0 10 5 10 10 0 6 -4 10 -10 10 -5 0
-10 -4 -10 -10z"/>
<path d="M6039 5873 c-13 -16 -12 -17 4 -4 9 7 17 15 17 17 0 8 -8 3 -21 -13z"/>
<path d="M6086 5869 c9 -10 24 -19 33 -18 13 0 12 2 -2 8 -10 4 -17 11 -15 15
2 5 -5 10 -15 12 -18 2 -18 2 -1 -17z"/>
<path d="M6150 5860 c-9 -6 -10 -10 -3 -10 6 0 15 5 18 10 8 12 4 12 -15 0z"/>
<path d="M6299 5868 c-7 -23 -4 -35 7 -35 9 0 11 4 4 12 -5 7 -7 15 -3 18 3 4
3 7 0 7 -4 0 -7 -1 -8 -2z"/>
<path d="M6015 5850 c3 -6 1 -10 -6 -10 -7 0 -10 -3 -6 -6 3 -3 13 -2 22 4 16
8 16 9 1 15 -10 4 -15 3 -11 -3z"/>
<path d="M6196 5838 c3 -4 0 -8 -7 -8 -7 0 -10 -3 -6 -6 3 -3 12 -2 19 2 7 5
16 9 20 9 20 0 13 11 -7 11 -13 0 -21 -4 -19 -8z"/>
<path d="M5854 5832 c3 -5 0 -13 -6 -15 -9 -4 -10 -6 -1 -6 17 -1 25 16 12 25
-7 4 -9 3 -5 -4z"/>
<path d="M5799 5828 c-5 -17 -4 -48 3 -48 4 0 7 11 6 25 -2 21 -6 31 -9 23z"/>
<path d="M6349 5803 c-13 -16 -12 -17 4 -4 9 7 17 15 17 17 0 8 -8 3 -21 -13z"/>
<path d="M6269 5783 c-13 -16 -12 -17 4 -4 9 7 17 15 17 17 0 8 -8 3 -21 -13z"/>
<path d="M5675 5780 c3 -5 8 -10 11 -10 2 0 4 5 4 10 0 6 -5 10 -11 10 -5 0
-7 -4 -4 -10z"/>
<path d="M6230 5780 c0 -5 5 -10 11 -10 5 0 7 5 4 10 -3 6 -8 10 -11 10 -2 0
-4 -4 -4 -10z"/>
<path d="M6210 5765 c0 -8 4 -15 10 -15 5 0 7 7 4 15 -4 8 -8 15 -10 15 -2 0
-4 -7 -4 -15z"/>
<path d="M6145 5760 c3 -5 8 -10 11 -10 2 0 4 5 4 10 0 6 -5 10 -11 10 -5 0
-7 -4 -4 -10z"/>
<path d="M6306 5758 c3 -5 10 -6 15 -3 13 9 11 12 -6 12 -8 0 -12 -4 -9 -9z"/>
<path d="M6166 5743 c-6 -14 -5 -15 5 -6 7 7 10 15 7 18 -3 3 -9 -2 -12 -12z"/>
<path d="M5295 5740 c-3 -5 -4 -14 0 -19 3 -6 -3 -15 -12 -21 -16 -9 -16 -10
-1 -8 9 2 17 -1 17 -7 0 -11 32 -25 44 -18 9 5 9 45 1 67 -7 18 -39 22 -49 6z"/>
<path d="M6195 5741 c3 -5 0 -11 -7 -13 -7 -3 -5 -7 6 -11 9 -4 15 -3 11 2 -3
5 0 11 7 13 7 3 5 7 -6 11 -9 4 -15 3 -11 -2z"/>
<path d="M5755 5730 c-3 -5 -1 -10 4 -10 6 0 11 5 11 10 0 6 -2 10 -4 10 -3 0
-8 -4 -11 -10z"/>
<path d="M5015 5721 c-3 -5 -2 -12 3 -15 5 -3 9 1 9 9 0 17 -3 19 -12 6z"/>
<path d="M6235 5723 c3 -3 -3 -11 -12 -18 -13 -9 -13 -14 -3 -20 9 -6 11 -4 5
5 -6 10 -4 12 7 7 16 -6 20 17 5 28 -4 3 -5 2 -2 -2z"/>
<path d="M6294 5715 c3 -23 12 -26 13 -5 1 11 -2 20 -7 20 -4 0 -7 -7 -6 -15z"/>
<path d="M5120 5700 c-12 -7 -10 -9 7 -7 12 0 19 5 17 9 -6 10 -6 10 -24 -2z"/>
<path d="M5068 5693 c6 -2 18 -2 25 0 6 3 1 5 -13 5 -14 0 -19 -2 -12 -5z"/>
<path d="M5189 5683 c-13 -16 -12 -17 4 -4 9 7 17 15 17 17 0 8 -8 3 -21 -13z"/>
<path d="M4905 5679 c-3 -4 2 -6 10 -5 21 3 28 13 10 13 -9 0 -18 -4 -20 -8z"/>
<path d="M4992 5685 c3 -3 16 -8 28 -10 12 -2 20 -1 16 2 -4 4 -16 8 -28 10
-12 2 -19 1 -16 -2z"/>
<path d="M5815 5670 c-10 -11 -22 -17 -28 -13 -6 3 -7 1 -3 -5 11 -19 -3 -35
-19 -22 -9 8 -15 8 -20 0 -3 -5 -5 -10 -3 -11 2 0 12 -2 22 -4 10 -2 23 -10
28 -17 8 -10 9 -10 5 2 -6 20 11 63 22 56 5 -3 14 1 20 8 19 22 -4 28 -24 6z"/>
<path d="M6330 5681 c0 -6 4 -12 8 -15 5 -3 9 1 9 9 0 8 -4 15 -9 15 -4 0 -8
-4 -8 -9z"/>
<path d="M5115 5670 c3 -5 8 -10 11 -10 2 0 4 5 4 10 0 6 -5 10 -11 10 -5 0
-7 -4 -4 -10z"/>
<path d="M4876 5661 c-3 -5 1 -14 8 -20 10 -9 16 -9 21 -1 4 6 1 9 -7 8 -7 -2
-12 3 -10 10 2 14 -4 16 -12 3z"/>
<path d="M5070 5651 c-5 -11 -18 -18 -27 -16 -23 3 -35 -4 -27 -16 4 -6 11 -6
20 2 15 12 19 0 7 -17 -5 -5 -1 -2 7 6 14 15 19 15 55 -1 24 -11 41 -14 43 -8
3 6 10 5 20 -3 13 -11 15 -10 9 5 -4 10 -7 21 -7 23 0 3 -4 2 -10 -1 -5 -3
-10 1 -10 9 0 9 -5 16 -11 16 -5 0 -7 -5 -4 -11 4 -6 -2 -5 -14 3 -12 7 -21
16 -21 20 0 15 -19 8 -30 -11z"/>
<path d="M5889 5664 c0 -5 -2 -17 -4 -26 -2 -10 1 -20 6 -24 5 -3 7 -10 4 -15
-4 -5 -2 -9 4 -9 19 0 21 19 4 29 -10 6 -13 11 -6 11 6 0 10 7 9 15 -2 17 -16
32 -17 19z"/>
<path d="M5978 5653 c-13 -12 -20 -14 -30 -5 -26 21 -40 -4 -24 -40 8 -18 27
-25 25 -10 -5 27 1 34 18 21 15 -12 16 -12 9 6 -4 11 -4 16 0 13 4 -4 15 -3
24 2 13 7 22 5 31 -7 8 -9 9 -14 2 -10 -6 4 -14 1 -16 -5 -4 -10 -6 -10 -6 0
-1 13 -21 17 -21 3 0 -5 14 -14 31 -21 26 -11 32 -11 40 1 5 8 9 9 9 3 0 -6 7
-11 16 -11 15 0 14 2 -1 13 -10 8 -21 11 -25 9 -11 -7 -21 24 -13 38 3 7 3 9
-2 5 -4 -4 -14 -3 -22 3 -9 9 -13 8 -13 0 0 -6 -5 -11 -11 -11 -5 0 -7 5 -4
10 9 15 1 12 -17 -7z"/>
<path d="M6310 5661 c0 -6 4 -13 10 -16 6 -3 7 1 4 9 -7 18 -14 21 -14 7z"/>
<path d="M5182 5640 c0 -14 2 -19 5 -12 2 6 2 18 0 25 -3 6 -5 1 -5 -13z"/>
<path d="M5230 5650 c-8 -5 -18 -6 -22 -4 -4 3 -8 0 -8 -5 0 -6 4 -11 9 -11 5
0 7 -10 5 -22 -2 -13 -2 -17 2 -10 3 6 10 12 15 12 6 0 8 -4 5 -8 -2 -4 5 -8
18 -8 19 0 21 4 18 29 -3 19 -7 25 -12 17 -6 -10 -9 -9 -11 3 -3 12 -8 14 -19
7z"/>
<path d="M6286 5644 c-4 -9 -4 -19 -1 -22 3 -3 5 0 5 7 0 7 4 9 10 6 6 -3 7 1
4 9 -8 20 -10 20 -18 0z"/>
<path d="M4770 5639 c0 -5 5 -7 10 -4 6 3 10 8 10 11 0 2 -4 4 -10 4 -5 0 -10
-5 -10 -11z"/>
<path d="M4930 5639 c0 -5 5 -7 10 -4 6 3 10 8 10 11 0 2 -4 4 -10 4 -5 0 -10
-5 -10 -11z"/>
<path d="M5294 5634 c-18 -14 -18 -15 4 -4 12 6 22 13 22 15 0 8 -5 6 -26 -11z"/>
<path d="M5334 5638 c3 -12 -2 -18 -16 -20 -12 -2 -23 -9 -24 -16 -1 -7 0 -8
3 -2 2 5 13 10 23 10 24 0 31 12 18 30 -8 12 -9 12 -4 -2z"/>
<path d="M6366 5638 c3 -5 10 -6 15 -3 13 9 11 12 -6 12 -8 0 -12 -4 -9 -9z"/>
<path d="M4955 5630 c-3 -6 1 -7 9 -4 18 7 21 14 7 14 -6 0 -13 -4 -16 -10z"/>
<path d="M4913 5613 c0 -12 6 -19 12 -15 5 3 21 5 35 3 14 -2 23 -1 20 2 -3 3
-16 7 -30 9 -14 1 -28 7 -32 13 -4 5 -6 0 -5 -12z"/>
<path d="M4990 5621 c0 -6 4 -13 10 -16 6 -3 7 1 4 9 -7 18 -14 21 -14 7z"/>
<path d="M6310 5620 c-8 -5 -10 -10 -5 -10 6 0 17 5 25 10 8 5 11 10 5 10 -5
0 -17 -5 -25 -10z"/>
<path d="M6375 5610 c-4 -6 -11 -7 -17 -4 -7 4 -8 2 -4 -5 6 -9 11 -9 22 0 14
11 18 19 10 19 -3 0 -8 -5 -11 -10z"/>
<path d="M5066 5602 c-2 -4 4 -8 14 -8 10 0 16 4 14 8 -3 4 -9 8 -14 8 -5 0
-11 -4 -14 -8z"/>
</g>
</svg>
